<svg id="Layer_1" data-name="Layer 1" xmlns="http://www.w3.org/2000/svg" viewBox="0 0 332 332"><defs><style>.cls-1{fill:#bdbdbd;stroke:#fff;stroke-linejoin:round;stroke-width:10px;}</style></defs><path class="cls-1" d="M170.09,8a161,161,0,0,1,161,160.84l-161,.16h0Z" transform="translate(-4.13 -3)"/><path class="cls-1" d="M331.13,169A161,161,0,0,1,170.26,330l-.13-161h161Z" transform="translate(-4.13 -3)"/><path class="cls-1" d="M170.09,330a161,161,0,0,1-153-111l153.05-50h0Z" transform="translate(-4.13 -3)"/><path class="cls-1" d="M17,218.82A161,161,0,0,1,39.79,74.49L170.13,169h0Z" transform="translate(-4.13 -3)"/><path class="cls-1" d="M39.88,74.36A161,161,0,0,1,169.9,8l.23,161h0Z" transform="translate(-4.13 -3)"/></svg>